<svg xmlns="http://www.w3.org/2000/svg" width="1200" height="800" viewBox="0 0 1200 800">
  <defs>
    <linearGradient id="bg" x1="0" y1="0" x2="1" y2="1">
      <stop offset="0" stop-color="rgba(255,255,255,0.05)"/>
      <stop offset="1" stop-color="rgba(255,255,255,0.02)"/>
    </linearGradient>
  </defs>

  <rect x="0" y="0" width="1200" height="800" rx="28" fill="url(#bg)"/>

  <!-- drill silhouette -->
  <path d="M320 300h260c40 0 70 30 70 70v40h110c30 0 55 25 55 55v25h-140v-40H575v200c0 32-26 58-58 58H430c-22 0-40-18-40-40v-40h-70c-22 0-40-18-40-40v-148c0-22 18-40 40-40Z" fill="rgba(255,255,255,0.08)" stroke="rgba(255,255,255,0.12)" stroke-width="3"/>

  <!-- saw blade -->
  <circle cx="860" cy="560" r="140" fill="rgba(255,255,255,0.05)" stroke="rgba(255,255,255,0.12)" stroke-width="3"/>
  <circle cx="860" cy="560" r="46" fill="rgba(0,0,0,0.20)" stroke="rgba(255,255,255,0.12)" stroke-width="3"/>
  <g opacity="0.6" stroke="rgba(255,255,255,0.18)" stroke-width="10" stroke-linecap="round">
    <path d="M860 420v50"/>
    <path d="M860 650v50"/>
    <path d="M720 560h50"/>
    <path d="M950 560h50"/>
    <path d="M760 460l35 35"/>
    <path d="M925 625l35 35"/>
    <path d="M960 465l-35 35"/>
    <path d="M795 630l-35 35"/>
  </g>

  <!-- subtle caption bars -->
  <rect x="80" y="80" width="420" height="18" rx="9" fill="rgba(255,255,255,0.10)"/>
  <rect x="80" y="112" width="300" height="14" rx="7" fill="rgba(255,255,255,0.08)"/>
</svg>
