<svg xmlns="http://www.w3.org/2000/svg" width="1200" height="800" viewBox="0 0 1200 800">
  <defs>
    <linearGradient id="bg" x1="0" y1="0" x2="1" y2="1">
      <stop offset="0" stop-color="rgba(255,255,255,0.05)"/>
      <stop offset="1" stop-color="rgba(255,255,255,0.02)"/>
    </linearGradient>
  </defs>

  <rect x="0" y="0" width="1200" height="800" rx="28" fill="url(#bg)"/>

  <!-- breadboard -->
  <rect x="160" y="240" width="880" height="360" rx="34" fill="rgba(255,255,255,0.06)" stroke="rgba(255,255,255,0.10)"/>
  <rect x="220" y="300" width="760" height="240" rx="26" fill="rgba(0,0,0,0.22)" stroke="rgba(255,255,255,0.10)"/>

  <!-- pins/grid -->
  <g opacity="0.35" fill="rgba(255,255,255,0.14)">
    <circle cx="280" cy="360" r="7"/>
    <circle cx="340" cy="360" r="7"/>
    <circle cx="400" cy="360" r="7"/>
    <circle cx="460" cy="360" r="7"/>
    <circle cx="520" cy="360" r="7"/>
    <circle cx="580" cy="360" r="7"/>
    <circle cx="640" cy="360" r="7"/>
    <circle cx="700" cy="360" r="7"/>
    <circle cx="760" cy="360" r="7"/>
    <circle cx="820" cy="360" r="7"/>
    <circle cx="880" cy="360" r="7"/>

    <circle cx="280" cy="420" r="7"/>
    <circle cx="340" cy="420" r="7"/>
    <circle cx="400" cy="420" r="7"/>
    <circle cx="460" cy="420" r="7"/>
    <circle cx="520" cy="420" r="7"/>
    <circle cx="580" cy="420" r="7"/>
    <circle cx="640" cy="420" r="7"/>
    <circle cx="700" cy="420" r="7"/>
    <circle cx="760" cy="420" r="7"/>
    <circle cx="820" cy="420" r="7"/>
    <circle cx="880" cy="420" r="7"/>

    <circle cx="280" cy="480" r="7"/>
    <circle cx="340" cy="480" r="7"/>
    <circle cx="400" cy="480" r="7"/>
    <circle cx="460" cy="480" r="7"/>
    <circle cx="520" cy="480" r="7"/>
    <circle cx="580" cy="480" r="7"/>
    <circle cx="640" cy="480" r="7"/>
    <circle cx="700" cy="480" r="7"/>
    <circle cx="760" cy="480" r="7"/>
    <circle cx="820" cy="480" r="7"/>
    <circle cx="880" cy="480" r="7"/>
  </g>

  <!-- wires -->
  <path d="M320 560 C380 520, 450 520, 520 560" fill="none" stroke="rgba(255,255,255,0.12)" stroke-width="8" stroke-linecap="round"/>
  <path d="M560 560 C620 500, 700 500, 780 560" fill="none" stroke="rgba(255,255,255,0.10)" stroke-width="8" stroke-linecap="round"/>
  <path d="M820 560 C880 520, 960 520, 1000 560" fill="none" stroke="rgba(255,255,255,0.08)" stroke-width="8" stroke-linecap="round"/>

  <!-- subtle caption bars -->
  <rect x="80" y="80" width="420" height="18" rx="9" fill="rgba(255,255,255,0.10)"/>
  <rect x="80" y="112" width="300" height="14" rx="7" fill="rgba(255,255,255,0.08)"/>
</svg>
