<svg xmlns="http://www.w3.org/2000/svg" width="1200" height="800" viewBox="0 0 1200 800">
  <defs>
    <linearGradient id="bg" x1="0" y1="0" x2="1" y2="1">
      <stop offset="0" stop-color="rgba(255,255,255,0.05)"/>
      <stop offset="1" stop-color="rgba(255,255,255,0.02)"/>
    </linearGradient>
  </defs>

  <rect x="0" y="0" width="1200" height="800" rx="28" fill="url(#bg)"/>

  <!-- Laser cutter body -->
  <rect x="140" y="190" width="920" height="470" rx="36" fill="rgba(255,255,255,0.06)" stroke="rgba(255,255,255,0.10)"/>
  <rect x="190" y="240" width="620" height="300" rx="26" fill="rgba(0,0,0,0.22)" stroke="rgba(255,255,255,0.10)"/>

  <!-- bed grid -->
  <g opacity="0.25" stroke="rgba(255,255,255,0.20)" stroke-width="1">
    <path d="M220 270 H780"/>
    <path d="M220 310 H780"/>
    <path d="M220 350 H780"/>
    <path d="M220 390 H780"/>
    <path d="M220 430 H780"/>
    <path d="M220 470 H780"/>
    <path d="M260 255 V525"/>
    <path d="M320 255 V525"/>
    <path d="M380 255 V525"/>
    <path d="M440 255 V525"/>
    <path d="M500 255 V525"/>
    <path d="M560 255 V525"/>
    <path d="M620 255 V525"/>
    <path d="M680 255 V525"/>
    <path d="M740 255 V525"/>
  </g>

  <!-- control panel -->
  <rect x="850" y="250" width="170" height="250" rx="24" fill="rgba(255,255,255,0.05)" stroke="rgba(255,255,255,0.12)"/>
  <rect x="875" y="280" width="120" height="80" rx="16" fill="rgba(0,0,0,0.22)" stroke="rgba(255,255,255,0.10)"/>
  <circle cx="905" cy="410" r="18" fill="rgba(255,255,255,0.10)"/>
  <circle cx="955" cy="410" r="18" fill="rgba(255,255,255,0.10)"/>
  <circle cx="930" cy="460" r="26" fill="rgba(255,255,255,0.12)"/>

  <!-- subtle caption bars -->
  <rect x="80" y="80" width="420" height="18" rx="9" fill="rgba(255,255,255,0.10)"/>
  <rect x="80" y="112" width="300" height="14" rx="7" fill="rgba(255,255,255,0.08)"/>
</svg>
