<svg xmlns="http://www.w3.org/2000/svg" width="1200" height="800" viewBox="0 0 1200 800">
  <defs>
    <linearGradient id="g" x1="0" y1="0" x2="1" y2="1">
      <stop offset="0" stop-color="#0d0f14"/>
      <stop offset="1" stop-color="#141a2a"/>
    </linearGradient>
  </defs>
  <rect width="1200" height="800" fill="url(#g)"/>
  <rect x="70" y="70" width="1060" height="660" rx="36" fill="rgba(255,255,255,0.04)" stroke="rgba(255,255,255,0.10)" stroke-width="3"/>

  <rect x="150" y="250" width="340" height="300" rx="26" fill="rgba(255,255,255,0.05)" stroke="rgba(255,255,255,0.12)" stroke-width="3"/>
  <rect x="205" y="305" width="230" height="190" rx="18" fill="rgba(13,15,20,0.60)" stroke="rgba(255,255,255,0.14)" stroke-width="3"/>
  <path d="M170 310h-60M170 350h-60M170 390h-60M170 430h-60" stroke="rgba(255,255,255,0.16)" stroke-width="8" stroke-linecap="round"/>
  <path d="M490 310h60M490 350h60M490 390h60M490 430h60" stroke="rgba(255,255,255,0.16)" stroke-width="8" stroke-linecap="round"/>

  <path d="M580 250h420" stroke="rgba(255,255,255,0.22)" stroke-width="10" stroke-linecap="round"/>
  <path d="M580 320h360" stroke="rgba(255,255,255,0.14)" stroke-width="10" stroke-linecap="round"/>
  <path d="M580 390h300" stroke="rgba(255,255,255,0.12)" stroke-width="10" stroke-linecap="round"/>

  <text x="110" y="160" fill="rgba(255,255,255,0.86)" font-size="44" font-family="system-ui,Segoe UI,Arial" font-weight="800" letter-spacing="2">TINKERERS LAB</text>
  <text x="110" y="210" fill="rgba(255,255,255,0.66)" font-size="26" font-family="system-ui,Segoe UI,Arial" font-weight="600">Electronics Basics Workshop</text>
  <text x="110" y="670" fill="rgba(255,255,255,0.52)" font-size="22" font-family="system-ui,Segoe UI,Arial" font-weight="600">Poster placeholder — replace with real poster anytime</text>
</svg>
